<svg width="37" height="34" viewBox="0 0 37 34" fill="none" xmlns="http://www.w3.org/2000/svg">
<path d="M36.8597 16.5869C36.8597 19.0437 33.8141 21.3719 29.1447 22.8157C30.2222 27.6234 29.7433 31.4484 27.6331 32.6729C27.1467 32.9602 26.578 33.0963 25.9569 33.0963V31.4106C26.3011 31.4106 26.578 31.3425 26.81 31.214C27.8277 30.6244 28.2692 28.3793 27.9249 25.4917C27.8426 24.7811 27.7079 24.0328 27.5433 23.2693C26.0766 23.6321 24.4752 23.9118 22.7915 24.0932C21.7813 25.4917 20.7337 26.7616 19.6786 27.8728C22.1181 30.1633 24.4079 31.4181 25.9644 31.4181V33.1038C23.9065 33.1038 21.2126 31.6222 18.4888 29.0521C15.7649 31.6071 13.071 33.0736 11.0132 33.0736V31.3879C12.5622 31.3879 14.8595 30.1406 17.299 27.8653C16.2513 26.7541 15.2037 25.4917 14.2085 24.0932C12.5173 23.9118 10.9159 23.6321 9.44923 23.2617C9.27712 24.0176 9.1499 24.7509 9.06011 25.4539C8.7084 28.3415 9.14242 30.5866 10.1526 31.1838C10.3771 31.3198 10.669 31.3803 11.0132 31.3803V33.066C10.3846 33.066 9.8159 32.93 9.32201 32.6427C7.21927 31.4181 6.74784 27.6007 7.83288 22.8082C3.17841 21.3568 0.147766 19.0361 0.147766 16.5869C0.147766 14.1302 3.19338 11.802 7.86281 10.3581C6.78525 5.55048 7.26417 1.72552 9.3744 0.500931C9.8608 0.21368 10.4295 0.07761 11.0581 0.07761C13.1159 0.07761 15.8098 1.55922 18.5337 4.12935C21.2575 1.57434 23.9514 0.107849 26.0093 0.107849C26.6378 0.107849 27.2066 0.243916 27.7004 0.531166C29.8032 1.75576 30.2746 5.57316 29.1896 10.3657C33.8291 11.8095 36.8597 14.1378 36.8597 16.5869ZM27.1168 21.6289C26.8399 20.6538 26.4957 19.6484 26.1065 18.643C25.7997 19.2478 25.478 19.8525 25.1263 20.4573C24.782 21.062 24.4154 21.6516 24.0487 22.2261C25.1113 22.0674 26.1365 21.8708 27.1168 21.6289ZM23.6895 13.5784C23.1058 12.5579 22.5072 11.5903 21.8861 10.6908C20.7711 10.5925 19.6412 10.5396 18.5037 10.5396C17.3738 10.5396 16.2439 10.5925 15.1364 10.6832C14.5153 11.5827 13.9091 12.5428 13.3255 13.5557C12.7567 14.5459 12.2404 15.5513 11.769 16.5643C12.2329 17.5772 12.7567 18.5901 13.318 19.5804C13.9017 20.6009 14.5003 21.5685 15.1214 22.468C16.2364 22.5663 17.3663 22.6192 18.5037 22.6192C19.6337 22.6192 20.7636 22.5663 21.8711 22.4756C22.4922 21.576 23.0984 20.616 23.682 19.6031C24.2507 18.6128 24.7671 17.6074 25.2385 16.5945C24.7671 15.5816 24.2507 14.5686 23.6895 13.5784ZM26.1065 14.5611C26.5106 13.5481 26.8549 12.5352 27.1392 11.5525C26.1589 11.3106 25.1263 11.1065 24.0562 10.9478C24.4229 11.5298 24.7895 12.127 25.1337 12.7393C25.478 13.344 25.7997 13.9563 26.1065 14.5611ZM18.5187 6.49539C17.8228 7.22107 17.1269 8.02991 16.4384 8.91433C17.1119 8.8841 17.8003 8.86142 18.4963 8.86142C19.1997 8.86142 19.8956 8.87654 20.5766 8.91433C19.9031 8.02991 19.2072 7.22107 18.5187 6.49539ZM12.9513 10.9478C11.8887 11.1065 10.8635 11.303 9.88324 11.5449C10.1601 12.5201 10.5043 13.5255 10.8935 14.5308C11.2003 13.9261 11.522 13.3214 11.8737 12.7166C12.2254 12.1119 12.5846 11.5223 12.9513 10.9478ZM18.4813 26.6785C19.1772 25.9528 19.8731 25.144 20.5616 24.2595C19.8881 24.2898 19.1997 24.3125 18.5037 24.3125C17.8003 24.3125 17.1044 24.2973 16.4235 24.2595C17.0969 25.144 17.7929 25.9528 18.4813 26.6785ZM12.9438 22.2261C12.5772 21.6441 12.2105 21.0469 11.8663 20.4346C11.522 19.8298 11.2003 19.2251 10.8935 18.6204C10.4894 19.6333 10.1452 20.6462 9.8608 21.6289C10.8411 21.8633 11.8737 22.0674 12.9438 22.2261ZM6.17164 12.762C3.52263 13.9034 1.80901 15.4001 1.80901 16.5869C1.80901 17.7737 3.52263 19.278 6.17164 20.4119C6.81519 20.6916 7.51859 20.941 8.24445 21.1754C8.67099 19.6938 9.23222 18.1517 9.92814 16.5718C9.2397 14.9995 8.68595 13.465 8.2669 11.9909C7.52608 12.2253 6.82267 12.4823 6.17164 12.762ZM10.1975 1.95986C9.17984 2.54948 8.73833 4.79456 9.08256 7.68218C9.16487 8.39275 9.29957 9.14111 9.46419 9.90459C10.9309 9.54175 12.5323 9.26206 14.2159 9.08064C15.2262 7.68218 16.2738 6.41224 17.3289 5.30103C14.8894 3.01059 12.5996 1.75576 11.0431 1.75576C10.7064 1.76332 10.422 1.83135 10.1975 1.95986ZM27.9474 7.71998C28.2991 4.83236 27.8651 2.58727 26.8549 1.99009C26.6304 1.85403 26.3385 1.79355 25.9943 1.79355C24.4453 1.79355 22.148 3.04082 19.7085 5.31615C20.7562 6.42735 21.8038 7.68974 22.799 9.0882C24.4902 9.26962 26.0916 9.54931 27.5583 9.91971C27.7304 9.15623 27.8651 8.42299 27.9474 7.71998ZM30.8284 12.762C30.1848 12.4823 29.4814 12.2328 28.7556 11.9985C28.329 13.4801 27.7678 15.0222 27.0719 16.6021C27.7603 18.1744 28.3141 19.7089 28.7331 21.1829C29.4739 20.9486 30.1773 20.6916 30.8358 20.4119C33.4849 19.2705 35.1985 17.7737 35.1985 16.5869C35.191 15.4001 33.4774 13.8959 30.8284 12.762Z" fill="#18CA75"/>
</svg>
